<svg preserveAspectRatio="none" overflow="visible" style="display: block;" width="12" height="12" viewBox="0 0 12 12" fill="none" xmlns="http://www.w3.org/2000/svg">
<g id="Component 1" clip-path="url(#clip0_0_538)">
<path id="Vector" d="M10.3935 8.16C10.4495 8.17658 10.5086 8.17986 10.566 8.16958C10.6235 8.1593 10.6778 8.13574 10.7246 8.10078C10.7713 8.06582 10.8093 8.02042 10.8354 7.9682C10.8615 7.91598 10.8751 7.85839 10.875 7.8V6.9C10.875 6.83492 10.858 6.77097 10.8258 6.71442C10.7936 6.65788 10.7472 6.61069 10.6912 6.5775L7.08525 4.43625V2.175C7.08525 1.89 6.966 1.62075 6.7605 1.42575C6.55493 1.23171 6.28268 1.12405 6 1.125C5.718 1.125 5.44425 1.2315 5.2395 1.42575C5.034 1.62075 4.91475 1.89075 4.91475 2.175V4.43625L1.30875 6.5775C1.25277 6.61069 1.20639 6.65788 1.17418 6.71442C1.14196 6.77097 1.12501 6.83492 1.125 6.9V7.8C1.12493 7.85839 1.1385 7.91598 1.16462 7.9682C1.19074 8.02042 1.22869 8.06582 1.27545 8.10078C1.32221 8.13574 1.37649 8.1593 1.43396 8.16958C1.49144 8.17986 1.55052 8.17658 1.6065 8.16L4.914 7.1775V8.9565L4.12425 9.519C4.07548 9.55373 4.03572 9.59963 4.00832 9.65286C3.98092 9.7061 3.96667 9.76513 3.96675 9.825V10.5C3.96681 10.5576 3.98014 10.6144 4.00569 10.666C4.03125 10.7176 4.06835 10.7626 4.11411 10.7976C4.15988 10.8326 4.21308 10.8565 4.2696 10.8676C4.32611 10.8787 4.38442 10.8766 4.44 10.8615L6 10.4392L7.56 10.863C7.61559 10.878 7.67388 10.8799 7.73036 10.8688C7.78683 10.8576 7.83997 10.8335 7.88566 10.7985C7.93135 10.7635 7.96836 10.7184 7.99383 10.6668C8.01929 10.6151 8.03252 10.5583 8.0325 10.5007V9.82575C8.03246 9.766 8.01815 9.70713 7.99075 9.65403C7.96336 9.60094 7.92367 9.55515 7.875 9.5205L7.08525 8.958V7.1775L10.3935 8.16Z" stroke="#6E6A68" stroke-width="0.9375" stroke-linejoin="round"/>
</g>
<defs>
<clipPath id="clip0_0_538">
<rect width="12" height="12" fill="white"/>
</clipPath>
</defs>
</svg>
